<?xml version="1.0" encoding="utf-8"?><svg xmlns="http://www.w3.org/2000/svg" viewBox="-222 384.9 155 73"><path fill="#31363A" d="M-68.1 392.7c-.1-1.5-2.1-.7-2.1-.7-3.3 1.2-10.1 8.9-11.3 10.2-1.3-.2-10.6-1.6-18.2 4-1.8 1.3-2.9 2.7-3.5 3.9-.5-.4-1.1-.7-1.8-.9-2-.6-3.3-.9-3.9-1.1 4.8-10.5 12.2-15.4 12.2-15.4.6-.4 1 .2 1 .2s1 1 1.8.3c.8-.6.2-4.8.2-4.8-.1-2-2.8-.9-2.8-.9-4.3 1.6-13.4 11.7-14.9 13.4-1-.2-13.7-2.4-24 5.2-1 .7-1.8 1.5-2.5 2.2-.3-.9-1-1.9-2.1-2.9-4.5-4-12.8-.6-12.8-.6-8.1 3.4-9.8 8.9-10.2 11.8-1.5-4.4-2.7-8.7-3.3-11.7-1.1-5.1-3.1-3.9-3.1-3.9-1.7.9-2.1 6.2-2.1 6.2-.4 3.8-1.1 6.9-3.3 10.9-2.3 4.2-4.3 4.9-5.3 2.6-.4-1.1-.9-4.1-.9-4.1-1-5.7-1.3-14.1-1.3-14.1v-.3c1.3-2.9 6.9-11.6 2.7-14.4-3-2-7.9-.6-9.9 2.1-3.7 5-5.2 13.5-5.6 20.2-.8-1.3-1.9-2.5-3.4-3.5-3.4-2.4-7.5-2.3-10.5-1.2-2.9 1-3.8.9-3.8.9 0-5.8-.4-7.2-.4-7.2-.7-2.6-2-3.4-3.7-3.4-3.1.1-3.3 2.3-3.2 3.5.2 1.9.8 5.6.8 5.6.2 1.8.7 5.4.8 7.1.1 1.5.3 7.6-.6 13.5h-1.5c-.3 0-.5.2-.4.5l.3 1.8c0 .3.3.5.6.5h.6c-.2.9-.4 2.5.1 3.4.7 1.4 2 2 3.7 1.4 1.7-.6 2.3-2.3 2.4-3.1 0 0 .1-1 .1-2.1h.2c6.6-.7 12.7-3.7 15.2-5.4 1.8-1.2 2.9-2.9 3.5-4.1.3 2.3.9 4.6 1.7 6.8-.5 1.3-1.1 2.5-1.8 3.6-1.5 2.4-1.7 2-.6 4.5.3.7 1 .1 1.1 0 1.2-1.2 2.1-3 2.9-5 1.6 2.5 3.8 4.2 6.8 4.2.1 0 .5-.1.5-.6l-.1-1.2c-.1-.4-.4-.4-.5-.4-2.9-.1-4.4-2.8-5.4-5.7.3-1.1.6-2.2.9-3.1 1.4-4.3 2.7-8.6 4.4-12.7.2 1.8.5 5.1.6 7.9.2 4.3-.4 8.4 1.8 10.7 2.3 2.5 7.4 2.9 10.3-1.2 2-2.8 3-5.8 3.4-7.3.1-.2.3-.7.7-.2 3.8 4.6 7.7 12.2 8.5 13.5.9 1.4 2 2.4 3 1.7s.1-2.5.1-2.5c-.7-1.5-2.2-4.5-2.6-5.3 1.6 1.2 4 2.2 7.3 2.6 0 0 8.3 1 13.8-3.5.1-.1.4-.5.1-1l-1-1.4c-.4-.5-.8-.2-.9-.1-2.7 2.1-6.7 2.5-6.7 2.5-13 .8-11.6-6.9-11.6-6.9 9.5.5 14.8-1.8 17.6-3.6-.1 4 3.3 7.2 5.3 8.3 1.8 1 4.6 2.1 8.5 2.3-.3.8-.5 1.7-.7 2.6-3.2.9-5.4 1.7-5.4 1.7s-3.2 1.3-4.7 2.2c-10.8 5.5-18.5 13.1-15 18.9 3.5 5.7 14.2 8.1 24.8 3.1 7.1-3.3 12.8-8.4 14.9-13.3 3 4 10.8 5.7 18.6 2 8.1-3.8 13.8-10.6 11.6-15.2-.8-1.8-2.8-3.1-5.3-3.8 2.3-.2 3.8-.1 4.6-.1.5 0 .6-.5.6-.6v-.9c0-.6-.5-.7-.6-.7-2.8-.2-5.7.2-8.3.7.1-.4.1-.9.2-1.3 2.3-.2 4.8-.7 7.8-1.9 8.5-3.3 9.3-4.3 9.3-6s-1.1-3.5-3.1-4.2c-1.6-.5-2.7-.8-3-.8 3.7-8 9.3-11.7 9.3-11.7.4-.3.8.1.8.1s.7.8 1.4.2c.7-.3.3-3.5.3-3.5zm-136.4 29.8s-4.8 2.3-9 2.4c0 0-.9-6.8 3-13.7 0 0 2.3-4.1 7.6-3.3 5.4.8 6.6 3.8 6.7 6.3 0 2.7-1 4.9-8.3 8.3zm20.1-21.1c-1.8 3.9-3.5 8-4.8 12.1-.7 2.2-1.3 4.6-2.1 6.9-1.1-4.5-.8-9 .2-13.5.9-3.9 2.4-7.6 4.2-11.1.8-1.7 2.1-3.6 3.5-4.7 1-.8 3.6-2.2 3.1.5-.6 3.5-2.7 6.7-4.1 9.8zm40 10.1s-2.4 3.5-11.1 3.4c-1.3 0-2.3-.4-2.3-.4s0-3.8 5.5-6.2c0 0 4.7-1.8 7.1 0 2.3 1.7.8 3.2.8 3.2zm35.2-3.4c0-.1 0-.1 0 0l-.1-.2.1.2zm-20.5 10.9c-2.1-1.3-6.5-5.2 0-10.6 3.2-2.6 7.7-3.4 10.6-3.5 0 0-.8.5-1.4.8-1.1.5-1.3.3-1.5 2.5-.2 2.5 1.9 2.8 3.7 3.1 1.8.4 7.1 1.6 8.9 2 1.7.4 1.7 1.2 1.7 1.2 0 1.6.3 1.4-7 4.6-2.6 1.1-5.1 1.6-7.2 1.7.2-.3.5-.6.8-.8 0 0 1.4-1 1.5-1.7.1-.7-.2-2.1-1.2-1.8-1 .2-1.4.6-2 1.3 0 0-.9 1-2 2.9-2.2-.4-3.8-1.1-4.9-1.7zm2.1 29.4c-7.4 3.4-14.9 2.9-16.9-1.4-2-4.3 3-9.2 10.1-13.3 2-1.2 4.2-1.9 6.3-2.2v.3s-.2 1.5 1.6 1.7c1.5.2 2-1.2 2.2-2.2 3.7.2 6.8 1.7 7.9 4 1.9 4.1-3.8 9.6-11.2 13.1zm15.7-14.4c0-.1-.1-.2-.1-.3-1.1-2.4-3.7-4.1-7-5 3-.3 5-.2 6.1-.1.7.1.8-.6.8-.8v-1.2c0-.8-.6-.9-.8-.9-3.6-.3-7.5.3-10.9 1 .1-.6.2-1.2.3-1.7 3-.2 6.4-.9 10.2-2.4 6.9-2.7 9.9-4.2 11.3-5.5.7.8 1.5 1.4 2.2 1.8 1.4.7 3.6 1.6 6.6 1.7-.2.6-.4 1.3-.5 2-2.5.7-4.2 1.4-4.2 1.4s-2.4 1-3.6 1.6c-4.7 2.3-8.4 5.5-10.4 8.4zm25.5-5.3c1.4 3-2.5 6.6-7.7 9-5.1 2.4-10.4 2.2-11.8-.8s2.1-6.4 7-9.3c1.5-.9 3.1-1.4 4.6-1.6 0 0-.2 1.1 1.3 1.3 1 .1 1.4-.7 1.5-1.4 2.4.3 4.4 1.3 5.1 2.8zm7.2-16.1c0 1.2.2 1.1-5.1 3.4-1.9.8-3.6 1.1-5.1 1.2l.2-.2s1.1-.8 1.1-1.4-.2-1.7-.9-1.4c-.7.3-1 .5-1.5 1 0 0-.5.6-1.2 1.8-1.6-.2-2.8-.8-3.5-1.2-1.5-.9-4.8-3.8 0-7.8 2.3-1.9 5.6-2.5 7.7-2.5 0 0-.6.4-1.1.6-.8.4-.9.2-1.1 1.8-.2 1.8 1.4 2 2.7 2.3 1.3.3 5.2 1.3 6.5 1.6 1.4.3 1.3.8 1.3.8z"/></svg>