<?xml version="1.0" encoding="utf-8"?>
<!DOCTYPE svg PUBLIC "-//W3C//DTD SVG 1.1//EN" "http://www.w3.org/Graphics/SVG/1.1/DTD/svg11.dtd">
<svg version="1.1" id="Layer_1" xmlns="http://www.w3.org/2000/svg" xmlns:xlink="http://www.w3.org/1999/xlink" x="0px" y="0px"
	 viewBox="-222 384.9 155 73" enable-background="new -222 384.9 155 73" xml:space="preserve">
<path fill="#31363A" d="M-68.1,392.7c-0.1-1.5-2.1-0.7-2.1-0.7c-3.3,1.2-10.1,8.9-11.3,10.2c-1.3-0.2-10.6-1.6-18.2,4
	c-1.8,1.3-2.9,2.7-3.5,3.9c-0.5-0.4-1.1-0.7-1.8-0.9c-2-0.6-3.3-0.9-3.9-1.1c4.8-10.5,12.2-15.4,12.2-15.4c0.6-0.4,1,0.2,1,0.2
	s1,1,1.8,0.3c0.8-0.6,0.2-4.8,0.2-4.8c-0.1-2-2.8-0.9-2.8-0.9c-4.3,1.6-13.4,11.7-14.9,13.4c-1-0.2-13.7-2.4-24,5.2
	c-1,0.7-1.8,1.5-2.5,2.2c-0.3-0.9-1-1.9-2.1-2.9c-4.5-4-12.8-0.6-12.8-0.6c-8.1,3.4-9.8,8.9-10.2,11.8c-1.5-4.4-2.7-8.7-3.3-11.7
	c-1.1-5.1-3.1-3.9-3.1-3.9c-1.7,0.9-2.1,6.2-2.1,6.2c-0.4,3.8-1.1,6.9-3.3,10.9c-2.3,4.2-4.3,4.9-5.3,2.6c-0.4-1.1-0.9-4.1-0.9-4.1
	c-1-5.7-1.3-14.1-1.3-14.1v-0.3c1.3-2.9,6.9-11.6,2.7-14.4c-3-2-7.9-0.6-9.9,2.1c-3.7,5-5.2,13.5-5.6,20.2c-0.8-1.3-1.9-2.5-3.4-3.5
	c-3.4-2.4-7.5-2.3-10.5-1.2c-2.9,1-3.8,0.9-3.8,0.9c0-5.8-0.4-7.2-0.4-7.2c-0.7-2.6-2-3.4-3.7-3.4c-3.1,0.1-3.3,2.3-3.2,3.5
	c0.2,1.9,0.8,5.6,0.8,5.6c0.2,1.8,0.7,5.4,0.8,7.1c0.1,1.5,0.3,7.6-0.6,13.5h-1.5c-0.3,0-0.5,0.2-0.4,0.5l0.3,1.8
	c0,0.3,0.3,0.5,0.6,0.5h0.6c-0.2,0.9-0.4,2.5,0.1,3.4c0.7,1.4,2,2,3.7,1.4c1.7-0.6,2.3-2.3,2.4-3.1c0,0,0.1-1,0.1-2.1h0.2
	c6.6-0.7,12.7-3.7,15.2-5.4c1.8-1.2,2.9-2.9,3.5-4.1c0.3,2.3,0.9,4.6,1.7,6.8c-0.5,1.3-1.1,2.5-1.8,3.6c-1.5,2.4-1.7,2-0.6,4.5
	c0.3,0.7,1,0.1,1.1,0c1.2-1.2,2.1-3,2.9-5c1.6,2.5,3.8,4.2,6.8,4.2c0.1,0,0.5-0.1,0.5-0.6l-0.1-1.2c-0.1-0.4-0.4-0.4-0.5-0.4
	c-2.9-0.1-4.4-2.8-5.4-5.7c0.3-1.1,0.6-2.2,0.9-3.1c1.4-4.3,2.7-8.6,4.4-12.7c0.2,1.8,0.5,5.1,0.6,7.9c0.2,4.3-0.4,8.4,1.8,10.7
	c2.3,2.5,7.4,2.9,10.3-1.2c2-2.8,3-5.8,3.4-7.3c0.1-0.2,0.3-0.7,0.7-0.2c3.8,4.6,7.7,12.2,8.5,13.5c0.9,1.4,2,2.4,3,1.7
	c1-0.7,0.1-2.5,0.1-2.5c-0.7-1.5-2.2-4.5-2.6-5.3c1.6,1.2,4,2.2,7.3,2.6c0,0,8.3,1,13.8-3.5c0.1-0.1,0.4-0.5,0.1-1l-1-1.4
	c-0.4-0.5-0.8-0.2-0.9-0.1c-2.7,2.1-6.7,2.5-6.7,2.5c-13,0.8-11.6-6.9-11.6-6.9c9.5,0.5,14.8-1.8,17.6-3.6c-0.1,4,3.3,7.2,5.3,8.3
	c1.8,1,4.6,2.1,8.5,2.3c-0.3,0.8-0.5,1.7-0.7,2.6c-3.2,0.9-5.4,1.7-5.4,1.7s-3.2,1.3-4.7,2.2c-10.8,5.5-18.5,13.1-15,18.9
	c3.5,5.7,14.2,8.1,24.8,3.1c7.1-3.3,12.8-8.4,14.9-13.3c3,4,10.8,5.7,18.6,2c8.1-3.8,13.8-10.6,11.6-15.2c-0.8-1.8-2.8-3.1-5.3-3.8
	c2.3-0.2,3.8-0.1,4.6-0.1c0.5,0,0.6-0.5,0.6-0.6v-0.9c0-0.6-0.5-0.7-0.6-0.7c-2.8-0.2-5.7,0.2-8.3,0.7c0.1-0.4,0.1-0.9,0.2-1.3
	c2.3-0.2,4.8-0.7,7.8-1.9c8.5-3.3,9.3-4.3,9.3-6s-1.1-3.5-3.1-4.2c-1.6-0.5-2.7-0.8-3-0.8c3.7-8,9.3-11.7,9.3-11.7
	c0.4-0.3,0.8,0.1,0.8,0.1s0.7,0.8,1.4,0.2C-67.7,395.9-68.1,392.7-68.1,392.7L-68.1,392.7z M-204.5,422.5c0,0-4.8,2.3-9,2.4
	c0,0-0.9-6.8,3-13.7c0,0,2.3-4.1,7.6-3.3c5.4,0.8,6.6,3.8,6.7,6.3C-196.2,416.9-197.2,419.1-204.5,422.5z M-184.4,401.4
	c-1.8,3.9-3.5,8-4.8,12.1c-0.7,2.2-1.3,4.6-2.1,6.9c-1.1-4.5-0.8-9,0.2-13.5c0.9-3.9,2.4-7.6,4.2-11.1c0.8-1.7,2.1-3.6,3.5-4.7
	c1-0.8,3.6-2.2,3.1,0.5C-180.9,395.1-183,398.3-184.4,401.4z M-144.4,411.5c0,0-2.4,3.5-11.1,3.4c-1.3,0-2.3-0.4-2.3-0.4
	s0-3.8,5.5-6.2c0,0,4.7-1.8,7.1,0C-142.9,410-144.4,411.5-144.4,411.5z M-109.2,408.1C-109.2,408-109.2,408-109.2,408.1l-0.1-0.2
	L-109.2,408.1z M-129.7,419c-2.1-1.3-6.5-5.2,0-10.6c3.2-2.6,7.7-3.4,10.6-3.5c0,0-0.8,0.5-1.4,0.8c-1.1,0.5-1.3,0.3-1.5,2.5
	c-0.2,2.5,1.9,2.8,3.7,3.1c1.8,0.4,7.1,1.6,8.9,2c1.7,0.4,1.7,1.2,1.7,1.2c0,1.6,0.3,1.4-7,4.6c-2.6,1.1-5.1,1.6-7.2,1.7
	c0.2-0.3,0.5-0.6,0.8-0.8c0,0,1.4-1,1.5-1.7c0.1-0.7-0.2-2.1-1.2-1.8c-1,0.2-1.4,0.6-2,1.3c0,0-0.9,1-2,2.9
	C-127,420.3-128.6,419.6-129.7,419z M-127.6,448.4c-7.4,3.4-14.9,2.9-16.9-1.4c-2-4.3,3-9.2,10.1-13.3c2-1.2,4.2-1.9,6.3-2.2v0.3
	c0,0-0.2,1.5,1.6,1.7c1.5,0.2,2-1.2,2.2-2.2c3.7,0.2,6.8,1.7,7.9,4C-114.5,439.4-120.2,444.9-127.6,448.4z M-111.9,434
	c0-0.1-0.1-0.2-0.1-0.3c-1.1-2.4-3.7-4.1-7-5c3-0.3,5-0.2,6.1-0.1c0.7,0.1,0.8-0.6,0.8-0.8v-1.2c0-0.8-0.6-0.9-0.8-0.9
	c-3.6-0.3-7.5,0.3-10.9,1c0.1-0.6,0.2-1.2,0.3-1.7c3-0.2,6.4-0.9,10.2-2.4c6.9-2.7,9.9-4.2,11.3-5.5c0.7,0.8,1.5,1.4,2.2,1.8
	c1.4,0.7,3.6,1.6,6.6,1.7c-0.2,0.6-0.4,1.3-0.5,2c-2.5,0.7-4.2,1.4-4.2,1.4s-2.4,1-3.6,1.6C-106.2,427.9-109.9,431.1-111.9,434z
	 M-86.4,428.7c1.4,3-2.5,6.6-7.7,9c-5.1,2.4-10.4,2.2-11.8-0.8s2.1-6.4,7-9.3c1.5-0.9,3.1-1.4,4.6-1.6c0,0-0.2,1.1,1.3,1.3
	c1,0.1,1.4-0.7,1.5-1.4C-89.1,426.2-87.1,427.2-86.4,428.7z M-79.2,412.6c0,1.2,0.2,1.1-5.1,3.4c-1.9,0.8-3.6,1.1-5.1,1.2l0.2-0.2
	c0,0,1.1-0.8,1.1-1.4s-0.2-1.7-0.9-1.4c-0.7,0.3-1,0.5-1.5,1c0,0-0.5,0.6-1.2,1.8c-1.6-0.2-2.8-0.8-3.5-1.2c-1.5-0.9-4.8-3.8,0-7.8
	c2.3-1.9,5.6-2.5,7.7-2.5c0,0-0.6,0.4-1.1,0.6c-0.8,0.4-0.9,0.2-1.1,1.8c-0.2,1.8,1.4,2,2.7,2.3c1.3,0.3,5.2,1.3,6.5,1.6
	C-79.1,412.1-79.2,412.6-79.2,412.6L-79.2,412.6z"/>
</svg>
